<svg width="75" height="100" viewBox="0 0 75 100" fill="none" xmlns="http://www.w3.org/2000/svg">
<path d="M42.6143 0.733974C30.0059 0.525825 17.7593 4.60246 8.23465 12.1787C6.79137 13.339 5.82845 14.9188 5.50246 16.653C5.17647 18.3872 5.50804 20.1711 6.44443 21.7073C7.38083 23.2436 8.86148 24.4382 10.6435 25.0926C12.4255 25.7471 14.4 25.8217 16.2344 25.3031V27.5027C14.4567 27.7217 12.8314 28.5392 11.6745 29.7958C10.5176 31.0523 9.91486 32.658 9.978 34.3012C10.0411 35.9444 10.7662 37.5077 12.0166 38.6864C13.267 39.8652 14.9505 40.575 16.7405 40.6787C17.3827 43.3897 18.6506 45.9432 20.4569 48.1689C22.2632 50.3946 24.5668 52.2411 27.2147 53.5841V58.8683C26.6164 58.9326 26.0483 59.14 25.5651 59.4697C23.8138 60.648 22.5044 62.2966 21.8206 64.1868H15.8501C11.6571 64.1875 7.63743 65.7152 4.67296 68.4334C1.70849 71.1517 0.0423402 74.838 0.0427628 78.6817V94.1432C0.0426323 94.838 0.192743 95.526 0.483288 96.1677C0.773832 96.8095 1.19777 97.3924 1.73457 97.8829C2.27136 98.3735 2.91287 98.7614 3.61383 99.0257C4.31478 99.29 5.0632 99.4254 5.82114 99.4231H69.1817C69.9393 99.4248 70.6886 99.2892 71.389 99.0246C72.0894 98.76 72.7273 98.3713 73.2636 97.8808C73.7999 97.3903 74.2246 96.8081 74.5149 96.1667C74.8051 95.5252 74.9555 94.8377 74.9554 94.1432V78.6817C74.9558 74.8384 73.2892 71.1527 70.3252 68.4345C67.3613 65.7163 63.3406 64.188 59.1481 64.1868H53.1822C52.4985 62.2966 51.1891 60.648 49.4378 59.4697C48.9546 59.14 48.3865 58.9326 47.7882 58.8683V53.5841C50.436 52.2411 52.7397 50.3946 54.546 48.1689C56.3523 45.9432 57.6201 43.3897 58.2623 40.6787C60.0524 40.575 61.7358 39.8652 62.9863 38.6864C64.2367 37.5077 64.9617 35.9444 65.0249 34.3012C65.088 32.658 64.4852 31.0523 63.3284 29.7958C62.1715 28.5392 60.5461 27.7217 58.7685 27.5027V19.4476C59.2751 19.3445 59.7488 19.1372 60.1557 18.8419C60.5625 18.5465 60.8908 18.1705 61.1164 17.7421C61.9273 16.2133 62.351 14.5359 62.3536 12.836C62.3562 11.1361 61.9367 9.45748 61.1304 7.92665C60.3242 6.39583 59.149 5.05325 57.6953 3.99791C56.2415 2.94257 54.5473 2.20239 52.737 1.83377C49.4111 1.15849 46.0203 0.790052 42.6143 0.733974V0.733974ZM42.544 2.49536C45.821 2.5504 49.0827 2.90591 52.2824 3.55649C53.8132 3.86286 55.2456 4.48319 56.4768 5.37157C57.708 6.25995 58.7073 7.39287 59.3918 8.68491C60.0762 9.97695 60.4319 11.3943 60.4322 12.8306C60.4324 14.2669 60.0757 15.6851 59.3918 16.9774C59.3046 17.1418 59.1849 17.289 59.0356 17.4102C58.8863 17.5314 58.7087 17.6246 58.5201 17.6841C58.3315 17.7435 58.1333 17.7685 57.9343 17.7571C57.7352 17.7457 57.5416 17.698 57.3625 17.6175C50.9929 14.8082 43.8653 13.7692 36.8594 14.6296C29.8534 15.49 23.274 18.2121 17.9356 22.4592C16.6387 23.4812 14.955 23.9919 13.2491 23.879C11.5433 23.7661 9.95308 23.0389 8.82983 21.8566C7.70658 20.6744 7.1383 19.1325 7.2505 17.5681C7.36269 16.0037 8.14727 14.5434 9.42969 13.5062V13.5062C18.6028 6.20913 30.4008 2.28503 42.544 2.49106V2.49536ZM41.1709 16.101C41.8918 16.0919 42.6113 16.1039 43.3314 16.1364C47.9131 16.3387 52.4037 17.3818 56.5377 19.2038C56.6201 19.2428 56.7053 19.2784 56.7908 19.3112V36.5384C56.5512 41.0825 54.4133 45.3679 50.8203 48.5062C47.2273 51.6445 42.4549 53.3951 37.4921 53.3951C32.5292 53.3951 27.7568 51.6445 24.1638 48.5062C20.5709 45.3679 18.433 41.0825 18.1933 36.5384V24.4794C18.5493 24.2725 18.8875 24.0412 19.2056 23.7877C25.3101 18.9328 33.0901 16.2107 41.1709 16.1021V16.101ZM16.225 29.2813V36.5416C16.2379 37.3221 16.3022 38.101 16.4172 38.8744C15.1757 38.7048 14.0398 38.1376 13.2116 37.273C12.3835 36.4085 11.9178 35.3023 11.8948 34.152C11.8717 33.0016 12.2921 31.8808 13.0851 30.989C13.8782 30.0972 14.9912 29.4925 16.225 29.2813V29.2813ZM58.7591 29.2813C59.9929 29.4925 61.106 30.0972 61.899 30.989C62.692 31.8808 63.1124 33.0016 63.0894 34.152C63.0663 35.3023 62.6007 36.4085 61.7725 37.273C60.9443 38.1376 59.8084 38.7048 58.567 38.8744C58.6819 38.101 58.7462 37.3221 58.7591 36.5416V29.2813ZM29.1127 54.4433C31.76 55.4851 34.6112 56.0221 37.4921 56.0221C40.3729 56.0221 43.2241 55.4851 45.8714 54.4433V59.1389C42.4656 60.106 39.5137 62.096 37.4921 64.7882C35.4704 62.096 32.5185 60.106 29.1127 59.1389V54.4433ZM27.5193 60.6168C27.6702 60.6094 27.8226 60.6229 27.9692 60.6565C31.4793 61.5161 34.4857 63.5968 36.3486 66.4562C36.4369 66.5875 36.4881 66.7354 36.5032 66.889C36.5184 67.0426 36.4941 67.1975 36.4329 67.3412C36.3718 67.4849 36.2764 67.6135 36.1517 67.7171C36.0271 67.8207 35.8779 67.8966 35.7159 67.9383C31.7051 68.7656 27.5094 68.3549 23.7796 66.7698C23.6272 66.7061 23.4988 66.5985 23.4187 66.4637C23.3386 66.3289 23.31 66.1741 23.3343 66.0223C23.6691 63.9687 24.8798 62.1209 26.6992 60.8842C26.9384 60.7237 27.2233 60.6311 27.5193 60.6178V60.6168ZM47.4367 60.6168C47.7418 60.6253 48.0383 60.7181 48.2849 60.8831C50.1054 62.1208 51.3162 63.9704 51.6498 66.0255C51.6796 66.1708 51.6568 66.321 51.5889 66.4551C51.5209 66.5892 51.4106 66.7002 51.2702 66.773C47.5209 68.3699 43.2991 68.7795 39.2682 67.9372C39.1062 67.8955 38.957 67.8196 38.8324 67.716C38.7077 67.6124 38.6124 67.4838 38.5512 67.3401C38.49 67.1964 38.4657 67.0416 38.4809 66.8879C38.4961 66.7343 38.5472 66.5864 38.6355 66.4551C40.4984 63.5957 43.5048 61.5151 47.0149 60.6554V60.6554C47.1527 60.6226 47.2943 60.6078 47.4367 60.6114V60.6168ZM15.8407 65.9482H21.366C21.3292 66.4519 21.4616 66.9538 21.7456 67.3863C22.0297 67.8188 22.4519 68.161 22.9547 68.3669C26.0495 69.6821 29.4523 70.2712 32.8572 70.081C31.8823 71.8929 31.2381 73.8391 30.9498 75.842H2.32037C3.02116 73.0341 4.7385 70.5268 7.19426 68.7299C9.65002 66.9329 12.6985 65.9523 15.8407 65.9482ZM53.6181 65.9482H59.1387C62.2813 65.9518 65.3289 66.9318 67.7852 68.7288C70.2414 70.5258 71.9629 73.0337 72.6637 75.842H39.779C40.0376 75.4971 40.2708 75.1369 40.4773 74.7637C41.1187 73.2456 41.3132 71.5999 41.0444 69.9908C44.7992 70.3849 48.6001 69.823 52.0294 68.3669C52.5322 68.161 52.9544 67.8188 53.2385 67.3863C53.5225 66.9538 53.6549 66.4519 53.6181 65.9482V65.9482ZM37.4921 68.9855C37.8837 69.3204 38.3659 69.5531 38.8886 69.66C38.9286 69.6601 38.9705 69.6601 39.0105 69.66C39.3987 71.1087 39.3068 72.6306 38.7527 74.0334C38.1567 75.0889 37.3057 76.0034 36.2595 76.7055C35.2134 77.4076 34.0037 77.8783 32.726 78.0802C32.757 75.1807 33.6054 72.3384 35.1957 69.8318C35.4938 69.7806 35.7908 69.7232 36.0861 69.66C36.6089 69.5531 37.091 69.3204 37.4827 68.9855H37.4921ZM2.00169 77.6034H30.8233C30.8212 77.7552 30.8212 77.907 30.8233 78.0588C30.821 78.3208 30.8821 78.5799 31.0013 78.8181C31.1206 79.0563 31.294 79.2674 31.5122 79.4367C31.7304 79.606 31.9861 79.7291 32.262 79.7976C32.5379 79.8661 32.8287 79.8783 33.1102 79.833C34.9734 79.5257 36.7079 78.7544 38.1247 77.6034H72.9777C72.9943 77.9626 72.9943 78.3224 72.9777 78.6817V85.7702H60.4087V83.0766C60.378 82.8652 60.265 82.6714 60.09 82.531C59.915 82.3905 59.69 82.3129 59.4574 82.3129C59.2248 82.3129 58.9997 82.3905 58.8247 82.531C58.6497 82.6714 58.5367 82.8652 58.506 83.0766V85.7702H16.4781V83.0766C16.4517 82.8616 16.34 82.6633 16.1641 82.5192C15.9882 82.375 15.7581 82.2947 15.5221 82.2947C15.2861 82.2947 15.0606 82.375 14.8847 82.5192C14.7088 82.6633 14.5971 82.8616 14.5707 83.0766V85.7702H2.00169V78.6817C1.98509 78.3224 1.98509 77.9626 2.00169 77.6034ZM2.00169 87.5316H14.5707V97.6617H5.81176C4.79873 97.6547 3.8308 97.2811 3.11706 96.622C2.40333 95.963 2.00192 95.0719 2.00169 94.1432V87.5316ZM16.4781 87.5316H58.506V97.6617H16.4781V87.5316ZM60.4087 87.5316H72.9777V94.1432C72.9775 95.0711 72.5751 95.961 71.8624 96.6199C71.1497 97.2788 70.1846 97.6536 69.1724 97.6617H60.4087V87.5316Z" fill="#4C3D6D"/>
<path d="M48.3532 29.1951C48.3809 28.9698 48.3574 28.7414 48.2823 28.5254C48.2072 28.3093 48.084 28.1099 47.9192 27.9408C47.7544 27.7717 47.5516 27.6367 47.3258 27.544C47.1 27.4514 46.8559 27.404 46.6085 27.404C46.3611 27.404 46.1169 27.4514 45.8911 27.544C45.6653 27.6367 45.4626 27.7717 45.2978 27.9408C45.1329 28.1099 45.0098 28.3093 44.9346 28.5254C44.8595 28.7414 44.8361 28.9698 44.8638 29.1951C44.8361 29.4205 44.8595 29.6488 44.9346 29.8649C45.0098 30.081 45.1329 30.2793 45.2978 30.4484C45.4626 30.6176 45.6653 30.7536 45.8911 30.8463C46.1169 30.9389 46.3611 30.9863 46.6085 30.9863C46.8559 30.9863 47.1 30.9389 47.3258 30.8463C47.5516 30.7536 47.7544 30.6176 47.9192 30.4484C48.084 30.2793 48.2072 30.081 48.2823 29.8649C48.3574 29.6488 48.3809 29.4205 48.3532 29.1951V29.1951Z" fill="#4C3D6D"/>
<path d="M30.1368 29.1951C30.1651 28.9695 30.1407 28.7408 30.0659 28.5243C29.9911 28.3078 29.8676 28.1082 29.7028 27.9387C29.5379 27.7692 29.3355 27.6338 29.1094 27.5409C28.8834 27.448 28.6354 27.3998 28.3876 27.3998C28.1399 27.3998 27.8963 27.448 27.6703 27.5409C27.4442 27.6338 27.2418 27.7692 27.0769 27.9387C26.9121 28.1082 26.7886 28.3078 26.7138 28.5243C26.639 28.7408 26.6146 28.9695 26.643 29.1951C26.6146 29.4207 26.639 29.6494 26.7138 29.8658C26.7886 30.0823 26.9121 30.2819 27.0769 30.4514C27.2418 30.6209 27.4442 30.7563 27.6703 30.8492C27.8963 30.9421 28.1399 30.9903 28.3876 30.9903C28.6354 30.9903 28.8834 30.9421 29.1094 30.8492C29.3355 30.7563 29.5379 30.6209 29.7028 30.4514C29.8676 30.2819 29.9911 30.0823 30.0659 29.8658C30.1407 29.6494 30.1651 29.4207 30.1368 29.1951Z" fill="#4C3D6D"/>
<path d="M30.96 43.6174C31.9465 42.4234 33.2312 41.4647 34.7062 40.8206C35.5782 40.4377 36.5336 40.2391 37.5004 40.2391C38.4672 40.2391 39.4226 40.4377 40.2945 40.8206C41.7693 41.4648 43.0501 42.4235 44.0363 43.6174C44.3226 43.9628 44.6859 44.2503 45.0991 44.4617C45.5122 44.6732 45.9698 44.8042 46.4408 44.8463C46.9117 44.8885 47.3857 44.8415 47.8356 44.7073C48.2856 44.5731 48.6996 44.355 49.0534 44.067C49.3653 43.8046 49.6451 43.5091 49.8814 43.1871C50.0217 42.9941 50.0709 42.7583 50.0231 42.5305C49.9754 42.3028 49.8329 42.1019 49.6246 41.9703C49.4163 41.8388 49.1608 41.7871 48.9117 41.8273C48.6625 41.8674 48.4386 41.9956 48.2917 42.1845C48.1469 42.3903 47.9751 42.5799 47.7825 42.7497C47.6261 42.8782 47.4463 42.976 47.2467 43.0359C47.0471 43.0959 46.8358 43.1166 46.6268 43.0978C46.4178 43.0791 46.212 43.0206 46.029 42.9263C45.8459 42.832 45.6858 42.7037 45.5596 42.5498C44.3896 41.1321 42.868 39.9925 41.1182 39.2263C39.9885 38.7309 38.7527 38.4743 37.5004 38.4743C36.2481 38.4743 35.0123 38.7309 33.8826 39.2263C32.1324 39.9924 30.607 41.132 29.4368 42.5498C29.3106 42.7036 29.1504 42.8321 28.9674 42.9263C28.7844 43.0205 28.5829 43.0791 28.374 43.0978C28.1651 43.1166 27.9536 43.0948 27.7541 43.0349C27.5546 42.975 27.3702 42.8781 27.2139 42.7497C27.0213 42.5799 26.8495 42.3903 26.7046 42.1845C26.5578 41.9956 26.3383 41.8674 26.0891 41.8273C25.84 41.7871 25.5845 41.8388 25.3762 41.9703C25.1679 42.1019 25.021 42.3028 24.9732 42.5305C24.9255 42.7583 24.9791 42.9941 25.1193 43.1871C25.3557 43.5091 25.631 43.8046 25.943 44.067C26.2967 44.3549 26.7153 44.5722 27.1651 44.7063C27.615 44.8404 28.0892 44.8885 28.56 44.8463C29.0308 44.8042 29.4886 44.6731 29.9017 44.4617C30.3148 44.2504 30.6737 43.9626 30.96 43.6174V43.6174Z" fill="#4C3D6D"/>
</svg>
