<svg width="100" height="62" viewBox="0 0 100 62" fill="none" xmlns="http://www.w3.org/2000/svg">
<path d="M48.785 24.695C48.693 24.604 48.593 24.516 48.488 24.43C48.448 24.397 48.403 24.367 48.361 24.335C48.293 24.284 48.227 24.232 48.154 24.184C48.096 24.144 48.034 24.106 47.974 24.068C47.912 24.029 47.852 23.991 47.788 23.953C47.716 23.911 47.64 23.87 47.563 23.828C47.508 23.799 47.452 23.769 47.395 23.74C47.308 23.696 47.218 23.653 47.126 23.611C47.078 23.589 47.028 23.567 46.979 23.545C46.876 23.5 46.771 23.456 46.664 23.413C46.624 23.397 46.584 23.382 46.544 23.367C46.424 23.322 46.304 23.277 46.18 23.235C46.152 23.225 46.124 23.217 46.096 23.207C45.959 23.161 45.821 23.117 45.679 23.074C44.803 22.813 43.837 22.622 42.836 22.504C42.433 22.457 42.024 22.421 41.615 22.397C41.614 22.397 41.614 22.397 41.614 22.397C41.204 22.373 40.793 22.36 40.384 22.36H40.383C36.476 22.36 32.353 23.46 31.383 25.518C31.244 25.811 31.17 26.125 31.17 26.458V26.94V28.609V31.479C31.17 34.14 35.917 35.576 40.382 35.576C44.849 35.576 49.596 34.139 49.596 31.479V26.458C49.596 26.291 49.578 26.13 49.542 25.973C49.47 25.66 49.329 25.366 49.129 25.092C49.029 24.955 48.914 24.823 48.785 24.695ZM48.035 31.479C48.035 32.513 45.056 34.014 40.385 34.014V30.555C43.273 30.555 46.271 29.951 48.035 28.805V31.479ZM40.384 28.993C40.038 28.993 39.706 28.982 39.38 28.967C39.282 28.963 39.188 28.956 39.092 28.95C38.858 28.935 38.629 28.917 38.406 28.895C38.314 28.886 38.222 28.877 38.132 28.867C37.87 28.838 37.616 28.803 37.37 28.764C37.338 28.759 37.303 28.755 37.27 28.749C36.982 28.702 36.708 28.648 36.443 28.589C36.405 28.581 36.368 28.571 36.331 28.563C36.105 28.511 35.888 28.455 35.681 28.396C35.64 28.384 35.599 28.372 35.559 28.36C34.452 28.032 33.638 27.616 33.177 27.202C33.159 27.186 33.142 27.17 33.126 27.154C33.084 27.114 33.043 27.075 33.009 27.036C32.963 26.985 32.92 26.932 32.885 26.881C32.87 26.859 32.86 26.836 32.846 26.814C32.823 26.772 32.801 26.731 32.784 26.689C32.776 26.669 32.768 26.65 32.763 26.631C32.746 26.571 32.733 26.513 32.733 26.457C32.733 26.392 32.745 26.326 32.767 26.258C32.788 26.198 32.819 26.136 32.856 26.074C32.869 26.053 32.887 26.031 32.903 26.01C32.931 25.969 32.961 25.928 32.997 25.887C33.02 25.86 33.049 25.833 33.076 25.806C33.111 25.77 33.148 25.734 33.189 25.698C33.224 25.668 33.261 25.637 33.299 25.608C33.34 25.575 33.381 25.544 33.426 25.511C33.472 25.478 33.522 25.445 33.572 25.411C33.614 25.384 33.659 25.356 33.704 25.329C33.764 25.292 33.827 25.256 33.892 25.22C33.933 25.198 33.975 25.177 34.017 25.155C34.095 25.114 34.173 25.075 34.258 25.035C34.288 25.021 34.32 25.008 34.351 24.994C35.196 24.614 36.348 24.286 37.75 24.097C37.755 24.096 37.76 24.096 37.764 24.095C37.966 24.068 38.171 24.044 38.382 24.023C38.391 24.022 38.4 24.022 38.407 24.021C38.619 24 38.835 23.982 39.057 23.968C39.058 23.968 39.058 23.968 39.059 23.968C39.484 23.941 39.923 23.923 40.383 23.923C40.865 23.923 41.329 23.939 41.773 23.969C42.518 24.019 43.204 24.109 43.833 24.226C43.877 24.234 43.92 24.242 43.963 24.251C44.46 24.348 44.918 24.463 45.333 24.59C45.375 24.603 45.417 24.616 45.458 24.629C45.66 24.694 45.853 24.76 46.033 24.83C46.035 24.831 46.037 24.832 46.041 24.833C46.214 24.901 46.374 24.972 46.527 25.043C46.565 25.061 46.601 25.079 46.638 25.096C46.786 25.169 46.929 25.243 47.055 25.319C47.058 25.322 47.061 25.324 47.066 25.327C47.188 25.4 47.295 25.474 47.394 25.549C47.421 25.569 47.447 25.588 47.472 25.608C47.568 25.685 47.657 25.762 47.729 25.838C47.929 26.051 48.034 26.262 48.034 26.456C48.035 27.492 45.054 28.993 40.384 28.993Z" fill="#4C3D6D"/>
<path d="M69.209 24.089V19.067C69.209 18.901 69.19 18.739 69.155 18.582C69.083 18.269 68.942 17.975 68.742 17.701C68.641 17.564 68.526 17.432 68.397 17.305C68.305 17.214 68.206 17.126 68.1 17.04C68.06 17.007 68.015 16.977 67.973 16.945C67.905 16.893 67.838 16.842 67.766 16.793C67.708 16.753 67.647 16.715 67.586 16.677C67.524 16.638 67.465 16.6 67.4 16.563C67.328 16.52 67.252 16.48 67.174 16.438C67.119 16.408 67.064 16.379 67.006 16.35C66.919 16.306 66.829 16.264 66.737 16.222C66.688 16.2 66.639 16.178 66.59 16.156C66.486 16.111 66.382 16.067 66.275 16.024C66.235 16.009 66.195 15.994 66.156 15.978C66.036 15.933 65.916 15.888 65.792 15.846C65.765 15.836 65.736 15.827 65.708 15.818C65.571 15.773 65.433 15.728 65.291 15.685C64.415 15.425 63.448 15.234 62.447 15.115C62.044 15.068 61.636 15.031 61.226 15.008C61.225 15.008 61.225 15.008 61.225 15.008C60.815 14.984 60.404 14.971 59.995 14.971H59.994C56.087 14.971 51.964 16.071 50.994 18.128C50.855 18.422 50.781 18.735 50.781 19.068V19.551V21.22V24.09C50.781 26.751 55.528 28.187 59.994 28.187C64.462 28.186 69.209 26.75 69.209 24.089ZM67.647 24.089C67.647 25.122 64.668 26.623 59.997 26.623V23.164C62.886 23.163 65.884 22.56 67.647 21.414V24.089ZM58.704 21.559C58.47 21.545 58.241 21.526 58.018 21.505C57.926 21.496 57.833 21.487 57.744 21.477C57.482 21.447 57.228 21.413 56.981 21.374C56.949 21.369 56.914 21.365 56.881 21.359C56.593 21.312 56.319 21.258 56.053 21.199C56.016 21.191 55.979 21.181 55.942 21.173C55.715 21.121 55.499 21.065 55.292 21.006C55.251 20.994 55.211 20.982 55.171 20.97C54.064 20.642 53.25 20.226 52.788 19.812C52.77 19.796 52.754 19.78 52.737 19.764C52.695 19.725 52.654 19.685 52.62 19.646C52.574 19.594 52.531 19.542 52.496 19.491C52.481 19.468 52.471 19.446 52.458 19.424C52.435 19.382 52.413 19.341 52.396 19.299C52.387 19.28 52.379 19.26 52.375 19.241C52.357 19.182 52.345 19.123 52.345 19.067C52.345 19.003 52.357 18.936 52.379 18.869C52.4 18.808 52.431 18.746 52.469 18.685C52.482 18.664 52.5 18.642 52.516 18.621C52.544 18.58 52.575 18.539 52.61 18.497C52.633 18.47 52.662 18.443 52.689 18.416C52.724 18.38 52.76 18.344 52.801 18.308C52.836 18.278 52.873 18.248 52.911 18.218C52.952 18.186 52.992 18.154 53.038 18.122C53.084 18.089 53.134 18.055 53.184 18.022C53.226 17.995 53.271 17.967 53.316 17.939C53.377 17.903 53.439 17.866 53.504 17.83C53.545 17.808 53.588 17.786 53.63 17.764C53.707 17.724 53.786 17.684 53.871 17.645C53.901 17.631 53.933 17.617 53.963 17.604C54.809 17.224 55.961 16.896 57.363 16.707C57.368 16.706 57.373 16.705 57.377 16.705C57.578 16.678 57.783 16.654 57.994 16.634C58.003 16.633 58.012 16.633 58.019 16.631C58.231 16.61 58.447 16.592 58.668 16.578C58.669 16.578 58.669 16.578 58.671 16.578C59.096 16.551 59.534 16.534 59.994 16.534C60.476 16.534 60.94 16.55 61.385 16.58C62.129 16.63 62.816 16.72 63.445 16.837C63.489 16.845 63.532 16.853 63.575 16.862C64.072 16.959 64.53 17.074 64.945 17.201C64.987 17.214 65.029 17.227 65.071 17.241C65.272 17.305 65.466 17.372 65.645 17.442C65.648 17.443 65.65 17.444 65.653 17.445C65.827 17.512 65.987 17.584 66.139 17.655C66.177 17.673 66.213 17.69 66.25 17.708C66.398 17.781 66.54 17.855 66.666 17.931C66.669 17.933 66.673 17.936 66.677 17.938C66.799 18.011 66.906 18.085 67.005 18.16C67.032 18.18 67.058 18.2 67.083 18.219C67.179 18.296 67.268 18.373 67.34 18.449C67.54 18.663 67.646 18.873 67.646 19.067C67.646 20.101 64.666 21.602 59.995 21.602C59.649 21.602 59.317 21.591 58.991 21.576C58.895 21.572 58.8 21.564 58.704 21.559Z" fill="#4C3D6D"/>
<path d="M99.968 16.96C99.961 16.938 99.951 16.918 99.944 16.897C99.926 16.851 99.906 16.807 99.88 16.765C99.867 16.744 99.854 16.723 99.838 16.703C99.809 16.664 99.775 16.629 99.738 16.597C99.72 16.581 99.705 16.565 99.686 16.551C99.678 16.545 99.672 16.537 99.664 16.531C99.613 16.496 99.559 16.468 99.503 16.446C99.501 16.446 99.5 16.445 99.499 16.445H99.498C99.497 16.445 99.496 16.444 99.494 16.444L88.822 12.359V11.679C88.822 11.512 88.803 11.351 88.768 11.194C88.696 10.881 88.555 10.587 88.355 10.313C88.254 10.176 88.14 10.044 88.01 9.917C87.919 9.826 87.819 9.738 87.713 9.652C87.673 9.619 87.628 9.589 87.586 9.556C87.519 9.505 87.451 9.453 87.38 9.405C87.321 9.365 87.26 9.327 87.2 9.289C87.138 9.25 87.078 9.212 87.013 9.174C86.941 9.132 86.865 9.091 86.788 9.05C86.732 9.02 86.677 8.99 86.62 8.962C86.532 8.918 86.442 8.875 86.35 8.834C86.302 8.811 86.252 8.789 86.203 8.768C86.099 8.723 85.996 8.679 85.888 8.636C85.848 8.62 85.809 8.605 85.769 8.59C85.65 8.545 85.529 8.5 85.405 8.458C85.378 8.448 85.349 8.44 85.322 8.43C85.185 8.384 85.046 8.34 84.904 8.297C84.028 8.036 83.061 7.845 82.061 7.727C81.657 7.677 81.25 7.64 80.84 7.616C80.839 7.616 80.839 7.616 80.839 7.616C80.429 7.592 80.018 7.579 79.609 7.579H79.608C78.679 7.579 77.738 7.643 76.83 7.766L69.021 4.777V4.097C69.021 3.931 69.002 3.769 68.967 3.613C68.895 3.3 68.754 3.006 68.554 2.732C68.453 2.595 68.338 2.463 68.209 2.335C68.118 2.244 68.018 2.157 67.912 2.07C67.872 2.037 67.827 2.007 67.785 1.975C67.718 1.923 67.65 1.872 67.578 1.823C67.52 1.783 67.459 1.746 67.398 1.708C67.337 1.669 67.277 1.631 67.212 1.593C67.14 1.551 67.064 1.51 66.986 1.468C66.931 1.439 66.876 1.409 66.819 1.38C66.731 1.336 66.641 1.293 66.549 1.251C66.5 1.229 66.451 1.207 66.402 1.185C66.3 1.14 66.195 1.096 66.088 1.054C66.048 1.038 66.009 1.023 65.969 1.008C65.85 0.963 65.729 0.918 65.605 0.876C65.578 0.866 65.549 0.857 65.521 0.848C65.385 0.802 65.246 0.757 65.104 0.715C64.228 0.455 63.261 0.264 62.261 0.145C61.857 0.098 61.449 0.061 61.039 0.038C61.038 0.038 61.038 0.038 61.038 0.038C60.628 0.012 60.217 0 59.808 0H59.807C55.9 0 51.777 1.1 50.807 3.157C50.668 3.451 50.594 3.764 50.594 4.097V4.58L42.724 7.545C42.698 7.542 42.674 7.538 42.648 7.535C42.244 7.488 41.836 7.451 41.426 7.427C41.425 7.427 41.425 7.427 41.425 7.427C41.015 7.403 40.604 7.39 40.195 7.39H40.194C36.286 7.39 32.164 8.49 31.194 10.548C31.055 10.841 30.981 11.155 30.981 11.488V11.97V11.98L23.111 14.935C23.136 14.938 23.16 14.943 23.185 14.945C23.134 14.939 23.085 14.93 23.035 14.924C22.632 14.877 22.223 14.84 21.814 14.817C21.813 14.817 21.813 14.817 21.813 14.817C21.403 14.793 20.992 14.78 20.583 14.78H20.582C16.675 14.78 12.552 15.88 11.582 17.937C11.444 18.231 11.37 18.544 11.37 18.877V19.359L0.505 23.454C0.502 23.455 0.5 23.457 0.497 23.458C0.442 23.479 0.388 23.506 0.338 23.541C0.33 23.546 0.324 23.554 0.317 23.56C0.297 23.574 0.281 23.591 0.263 23.607C0.227 23.64 0.194 23.673 0.164 23.711C0.148 23.732 0.134 23.752 0.121 23.774C0.096 23.816 0.075 23.858 0.057 23.904C0.049 23.925 0.039 23.946 0.033 23.969C0.014 24.035 0.002 24.104 0.001 24.174C0.001 24.177 0 24.18 0 24.182C0 24.183 0 24.183 0 24.183C0 24.183 0 24.183 0 24.184V45.597C0 45.92 0.199 46.21 0.501 46.326L40.103 61.485C40.11 61.487 40.118 61.486 40.125 61.488C40.208 61.518 40.294 61.536 40.382 61.536C40.469 61.536 40.554 61.518 40.636 61.49C40.643 61.488 40.65 61.489 40.657 61.486L99.493 39.316C99.798 39.201 99.999 38.91 99.999 38.585V17.173C100 17.1 99.987 17.029 99.968 16.96ZM76.977 9.316C76.982 9.315 76.987 9.315 76.991 9.314C77.192 9.287 77.398 9.263 77.609 9.242C77.617 9.241 77.626 9.241 77.633 9.24C77.845 9.219 78.062 9.201 78.283 9.187C78.284 9.187 78.284 9.187 78.285 9.187C78.71 9.16 79.149 9.142 79.608 9.142C80.09 9.142 80.554 9.159 80.999 9.188C81.744 9.238 82.431 9.328 83.059 9.445C83.103 9.453 83.146 9.461 83.189 9.47C83.687 9.567 84.144 9.682 84.559 9.809C84.601 9.822 84.643 9.835 84.685 9.848C84.886 9.913 85.081 9.979 85.26 10.049C85.262 10.05 85.264 10.051 85.267 10.052C85.441 10.12 85.601 10.191 85.753 10.262C85.791 10.28 85.827 10.298 85.864 10.315C86.012 10.388 86.154 10.462 86.28 10.538C86.284 10.541 86.287 10.543 86.291 10.546C86.413 10.619 86.52 10.693 86.62 10.768C86.646 10.788 86.673 10.807 86.697 10.827C86.793 10.904 86.882 10.981 86.954 11.057C87.154 11.27 87.26 11.481 87.26 11.675C87.26 12.709 84.28 14.21 79.609 14.21C79.263 14.21 78.931 14.199 78.605 14.184C78.507 14.18 78.413 14.173 78.317 14.167C78.084 14.152 77.854 14.134 77.631 14.113C77.539 14.104 77.446 14.095 77.357 14.085C77.095 14.056 76.841 14.021 76.595 13.982C76.563 13.977 76.527 13.973 76.494 13.967C76.206 13.92 75.932 13.866 75.667 13.807C75.629 13.799 75.593 13.789 75.555 13.781C75.329 13.729 75.112 13.673 74.906 13.614C74.865 13.602 74.824 13.591 74.784 13.578C73.677 13.25 72.863 12.834 72.401 12.42C72.384 12.404 72.367 12.388 72.351 12.372C72.309 12.333 72.268 12.293 72.233 12.254C72.187 12.202 72.144 12.15 72.11 12.099C72.094 12.077 72.084 12.054 72.071 12.032C72.048 11.99 72.026 11.949 72.009 11.907C72 11.887 71.993 11.868 71.988 11.849C71.971 11.79 71.958 11.731 71.958 11.675C71.958 11.611 71.97 11.544 71.993 11.476C72.014 11.416 72.044 11.354 72.082 11.292C72.095 11.271 72.113 11.249 72.129 11.228C72.157 11.187 72.188 11.146 72.223 11.105C72.247 11.078 72.275 11.051 72.302 11.024C72.337 10.988 72.374 10.952 72.415 10.916C72.449 10.886 72.486 10.856 72.524 10.826C72.565 10.794 72.606 10.762 72.651 10.729C72.697 10.696 72.747 10.663 72.797 10.629C72.839 10.601 72.884 10.574 72.929 10.546C72.99 10.509 73.052 10.473 73.117 10.437C73.158 10.415 73.201 10.394 73.243 10.372C73.321 10.331 73.399 10.292 73.484 10.252C73.514 10.238 73.546 10.225 73.577 10.211C74.422 9.833 75.574 9.505 76.977 9.316ZM87.26 14.025V16.699C87.26 17.732 84.281 19.234 79.61 19.234V15.775C82.498 15.773 85.496 15.17 87.26 14.025ZM52.19 3.899C52.211 3.838 52.242 3.777 52.28 3.715C52.293 3.694 52.311 3.672 52.327 3.651C52.355 3.61 52.386 3.569 52.421 3.527C52.445 3.5 52.473 3.473 52.5 3.446C52.535 3.41 52.572 3.374 52.612 3.338C52.647 3.308 52.684 3.277 52.722 3.247C52.763 3.215 52.804 3.183 52.849 3.151C52.895 3.118 52.945 3.085 52.995 3.051C53.037 3.024 53.082 2.996 53.127 2.969C53.188 2.932 53.25 2.896 53.315 2.86C53.356 2.838 53.399 2.817 53.441 2.795C53.518 2.754 53.597 2.714 53.682 2.675C53.712 2.661 53.744 2.648 53.775 2.634C54.62 2.254 55.772 1.926 57.174 1.737C57.179 1.736 57.184 1.736 57.188 1.735C57.389 1.708 57.595 1.684 57.806 1.663C57.814 1.662 57.823 1.662 57.83 1.661C58.042 1.64 58.259 1.622 58.48 1.608C58.481 1.608 58.481 1.608 58.482 1.608C58.907 1.58 59.346 1.563 59.805 1.563C60.287 1.563 60.751 1.579 61.196 1.609C61.94 1.659 62.628 1.749 63.256 1.866C63.3 1.874 63.343 1.882 63.386 1.89C63.884 1.987 64.341 2.102 64.756 2.23C64.798 2.243 64.84 2.256 64.882 2.269C65.083 2.333 65.278 2.4 65.457 2.47C65.459 2.471 65.461 2.472 65.464 2.473C65.638 2.541 65.798 2.612 65.95 2.683C65.988 2.701 66.024 2.718 66.061 2.736C66.209 2.809 66.351 2.883 66.477 2.959C66.481 2.962 66.484 2.964 66.488 2.966C66.61 3.039 66.717 3.113 66.816 3.188C66.843 3.208 66.869 3.228 66.894 3.248C66.99 3.325 67.079 3.402 67.151 3.478C67.351 3.692 67.457 3.902 67.457 4.096C67.457 5.13 64.477 6.631 59.806 6.631C59.46 6.631 59.128 6.62 58.802 6.605C58.704 6.601 58.61 6.594 58.514 6.587C58.281 6.573 58.051 6.554 57.828 6.533C57.736 6.524 57.643 6.515 57.554 6.505C57.292 6.475 57.038 6.441 56.792 6.402C56.759 6.397 56.724 6.393 56.691 6.388C56.403 6.341 56.129 6.286 55.864 6.228C55.826 6.22 55.79 6.21 55.752 6.202C55.526 6.15 55.309 6.094 55.103 6.035C55.063 6.024 55.022 6.012 54.982 6C53.875 5.672 53.061 5.256 52.599 4.842C52.582 4.826 52.565 4.81 52.548 4.794C52.506 4.754 52.466 4.715 52.431 4.676C52.385 4.625 52.342 4.572 52.308 4.521C52.293 4.5 52.282 4.477 52.27 4.455C52.247 4.413 52.225 4.372 52.208 4.33C52.199 4.311 52.192 4.291 52.187 4.272C52.169 4.212 52.157 4.154 52.157 4.097C52.156 4.033 52.168 3.967 52.19 3.899ZM67.459 6.445V9.119C67.459 10.152 64.48 11.653 59.809 11.653V8.194C62.697 8.194 65.695 7.59 67.459 6.445ZM32.578 11.289C32.599 11.229 32.63 11.167 32.667 11.105C32.68 11.084 32.698 11.062 32.714 11.041C32.742 11 32.772 10.959 32.808 10.918C32.832 10.891 32.86 10.864 32.887 10.837C32.923 10.801 32.959 10.765 33 10.729C33.035 10.699 33.072 10.669 33.11 10.639C33.151 10.607 33.192 10.575 33.237 10.543C33.283 10.509 33.333 10.476 33.383 10.443C33.425 10.416 33.47 10.388 33.515 10.36C33.576 10.323 33.638 10.287 33.703 10.251C33.744 10.229 33.787 10.208 33.829 10.186C33.906 10.145 33.985 10.106 34.07 10.066C34.1 10.052 34.132 10.039 34.163 10.025C35.008 9.645 36.16 9.317 37.562 9.128C37.567 9.127 37.572 9.127 37.576 9.126C37.777 9.099 37.983 9.075 38.194 9.055C38.202 9.054 38.211 9.053 38.218 9.052C38.43 9.031 38.647 9.013 38.868 8.999C38.869 8.999 38.869 8.999 38.87 8.999C39.295 8.972 39.734 8.954 40.194 8.954C40.676 8.954 41.14 8.971 41.584 9C42.329 9.05 43.015 9.14 43.644 9.257C43.688 9.265 43.731 9.273 43.774 9.282C44.271 9.379 44.729 9.494 45.144 9.621C45.186 9.634 45.228 9.647 45.27 9.66C45.471 9.725 45.665 9.791 45.845 9.862C45.847 9.863 45.849 9.864 45.852 9.865C46.025 9.933 46.185 10.004 46.338 10.075C46.376 10.093 46.412 10.111 46.449 10.128C46.597 10.201 46.74 10.275 46.866 10.351C46.869 10.354 46.872 10.356 46.877 10.359C46.999 10.432 47.106 10.506 47.205 10.581C47.232 10.601 47.258 10.62 47.283 10.64C47.379 10.717 47.468 10.794 47.54 10.87C47.74 11.083 47.846 11.294 47.846 11.488C47.846 12.522 44.865 14.023 40.195 14.023C39.849 14.023 39.517 14.012 39.191 13.997C39.093 13.993 38.998 13.986 38.902 13.98C38.669 13.965 38.439 13.947 38.216 13.926C38.125 13.917 38.032 13.908 37.942 13.898C37.681 13.869 37.426 13.834 37.18 13.795C37.147 13.79 37.112 13.786 37.08 13.78C36.791 13.733 36.517 13.679 36.252 13.62C36.214 13.612 36.178 13.602 36.14 13.594C35.914 13.542 35.697 13.486 35.49 13.427C35.449 13.415 35.408 13.404 35.369 13.392C34.262 13.064 33.448 12.648 32.986 12.234C32.969 12.218 32.951 12.202 32.935 12.186C32.893 12.147 32.852 12.107 32.818 12.068C32.772 12.016 32.729 11.964 32.694 11.913C32.679 11.891 32.668 11.868 32.655 11.846C32.632 11.804 32.61 11.763 32.594 11.721C32.585 11.701 32.578 11.682 32.573 11.663C32.555 11.604 32.543 11.545 32.543 11.489C32.544 11.423 32.556 11.357 32.578 11.289ZM47.847 13.835V16.509C47.847 17.542 44.867 19.044 40.197 19.044V15.585C43.084 15.584 46.083 14.98 47.847 13.835ZM12.965 18.68C12.986 18.619 13.017 18.557 13.054 18.496C13.068 18.475 13.086 18.453 13.101 18.432C13.13 18.391 13.159 18.35 13.195 18.308C13.218 18.281 13.247 18.254 13.273 18.227C13.309 18.191 13.345 18.155 13.386 18.119C13.421 18.089 13.458 18.059 13.496 18.029C13.537 17.997 13.578 17.965 13.622 17.933C13.668 17.9 13.718 17.866 13.769 17.833C13.811 17.806 13.855 17.778 13.901 17.75C13.961 17.714 14.024 17.677 14.09 17.641C14.13 17.619 14.173 17.598 14.215 17.575C14.293 17.535 14.371 17.495 14.456 17.456C14.486 17.442 14.518 17.429 14.548 17.415C15.393 17.035 16.546 16.707 17.948 16.518C17.953 16.517 17.957 16.517 17.962 16.516C18.163 16.489 18.369 16.465 18.58 16.444C18.589 16.443 18.598 16.443 18.605 16.441C18.817 16.42 19.033 16.402 19.255 16.388C19.256 16.388 19.256 16.388 19.257 16.388C19.682 16.361 20.121 16.344 20.581 16.344C21.063 16.344 21.527 16.36 21.972 16.39C22.717 16.44 23.403 16.53 24.032 16.647C24.076 16.655 24.119 16.663 24.162 16.671C24.659 16.768 25.117 16.883 25.532 17.011C25.574 17.024 25.616 17.037 25.658 17.05C25.859 17.114 26.053 17.181 26.233 17.251C26.235 17.252 26.237 17.253 26.241 17.254C26.414 17.322 26.574 17.393 26.727 17.464C26.765 17.482 26.801 17.499 26.838 17.517C26.986 17.59 27.129 17.664 27.255 17.74C27.258 17.742 27.261 17.745 27.266 17.747C27.388 17.82 27.495 17.894 27.594 17.969C27.621 17.989 27.647 18.009 27.672 18.029C27.768 18.106 27.857 18.183 27.929 18.259C28.129 18.473 28.235 18.683 28.235 18.877C28.235 19.911 25.254 21.412 20.584 21.412C20.239 21.412 19.906 21.401 19.58 21.386C19.482 21.382 19.388 21.375 19.291 21.368C19.058 21.354 18.829 21.335 18.606 21.314C18.514 21.305 18.422 21.296 18.332 21.286C18.07 21.256 17.816 21.222 17.57 21.183C17.538 21.178 17.502 21.174 17.47 21.169C17.182 21.122 16.908 21.067 16.642 21.009C16.604 21.001 16.568 20.991 16.53 20.983C16.304 20.931 16.087 20.875 15.88 20.816C15.839 20.804 15.798 20.792 15.758 20.78C14.651 20.452 13.838 20.036 13.376 19.622C13.358 19.605 13.341 19.59 13.325 19.574C13.283 19.534 13.243 19.495 13.208 19.456C13.162 19.404 13.119 19.352 13.085 19.301C13.069 19.278 13.059 19.256 13.045 19.234C13.022 19.192 13 19.151 12.984 19.109C12.976 19.09 12.968 19.07 12.963 19.051C12.945 18.992 12.933 18.933 12.933 18.877C12.931 18.813 12.943 18.748 12.965 18.68ZM28.234 21.226V23.9C28.234 24.933 25.255 26.434 20.584 26.434V22.975C23.472 22.974 26.47 22.371 28.234 21.226ZM40.384 38.508L16.043 29.191L2.98 24.19L11.369 21.029V23.899C11.369 26.56 16.116 27.996 20.581 27.996C25.048 27.996 29.795 26.56 29.795 23.899V18.877C29.795 18.711 29.777 18.549 29.741 18.392C29.669 18.079 29.528 17.785 29.328 17.511C29.228 17.374 29.113 17.242 28.983 17.115C28.892 17.024 28.792 16.936 28.686 16.85C28.646 16.817 28.601 16.787 28.559 16.755C28.491 16.703 28.425 16.652 28.352 16.603C28.294 16.563 28.232 16.526 28.172 16.487C28.11 16.448 28.05 16.41 27.986 16.373C27.914 16.331 27.837 16.29 27.761 16.248C27.706 16.218 27.65 16.189 27.593 16.16C27.506 16.116 27.415 16.074 27.324 16.032C27.276 16.01 27.226 15.988 27.177 15.966C27.074 15.921 26.969 15.877 26.862 15.834C26.822 15.818 26.782 15.803 26.742 15.788C26.622 15.743 26.502 15.698 26.378 15.656C26.35 15.646 26.322 15.637 26.294 15.628C26.189 15.593 26.081 15.559 25.973 15.526L30.979 13.64V13.639V13.641V16.511C30.979 19.172 35.726 20.608 40.192 20.608C44.659 20.608 49.406 19.172 49.406 16.511V11.49C49.406 11.323 49.387 11.162 49.352 11.005C49.28 10.692 49.139 10.398 48.939 10.124C48.839 9.987 48.724 9.855 48.595 9.728C48.505 9.634 48.405 9.546 48.3 9.46C48.26 9.427 48.215 9.397 48.173 9.365C48.105 9.313 48.038 9.262 47.966 9.213C47.908 9.173 47.847 9.135 47.786 9.097C47.725 9.058 47.664 9.02 47.6 8.982C47.528 8.94 47.452 8.899 47.375 8.858C47.32 8.828 47.264 8.798 47.208 8.77C47.121 8.726 47.03 8.684 46.939 8.642C46.89 8.619 46.841 8.597 46.792 8.576C46.688 8.531 46.584 8.487 46.477 8.444C46.437 8.428 46.397 8.413 46.357 8.398C46.238 8.353 46.117 8.308 45.993 8.266C45.965 8.256 45.937 8.248 45.909 8.238C45.804 8.203 45.696 8.169 45.588 8.136L50.594 6.249V9.12C50.594 11.781 55.341 13.217 59.807 13.217C64.274 13.217 69.021 11.781 69.021 9.12V6.45L74.049 8.375C72.389 8.907 71.097 9.7 70.608 10.738C70.469 11.031 70.395 11.345 70.395 11.678V12.16V13.829V16.699C70.395 19.36 75.142 20.796 79.608 20.796C84.075 20.796 88.822 19.36 88.822 16.699V14.029L97.02 17.168L40.384 38.508ZM98.438 38.045L41.164 59.627V39.883L61.471 32.231L98.438 18.301V38.045Z" fill="#4C3D6D"/>
</svg>
