<svg width="541" height="500" viewBox="0 0 541 500" fill="none" xmlns="http://www.w3.org/2000/svg">
<g style="mix-blend-mode:darken">
<circle cx="271" cy="250" r="249.5" stroke="#4C3D6D"/>
</g>
<path d="M102.037 219.98C105.697 210.86 109.687 202.85 114.007 195.95C118.387 188.99 122.527 182.81 126.427 177.41C119.227 175.13 112.897 173.3 107.437 171.92L114.097 161.57C127.297 164.09 142.477 168.68 159.637 175.34L153.427 187.76C144.067 183.86 135.967 180.71 129.127 178.31L136.777 185.15C129.877 194.51 123.727 205.04 118.327 216.74C116.467 220.64 114.547 224.93 112.567 229.61L102.037 219.98ZM156.322 186.68C159.202 182.78 162.802 178.73 167.122 174.53L175.492 181.01C174.832 183.77 174.262 185.78 173.782 187.04C181.522 186.2 187.102 185.36 190.522 184.52C193.942 183.68 196.912 182.93 199.432 182.27L201.952 192.98C199.492 193.7 196.912 194.33 194.212 194.87C190.072 201.41 186.622 208.34 183.862 215.66C193.822 212.24 201.172 209.06 205.912 206.12L207.892 215.21C202.372 218.81 195.142 222.5 186.202 226.28C183.322 227.48 180.562 228.53 177.922 229.43L168.382 219.89C172.282 210.95 176.452 203.24 180.892 196.76C176.692 197.12 172.972 197.36 169.732 197.48C168.772 199.28 166.192 203.78 161.992 210.98L155.332 215.21L146.782 210.17C151.762 204.77 155.122 200.99 156.862 198.83C158.602 196.67 160.102 194.81 161.362 193.25C159.622 191.33 157.942 189.14 156.322 186.68ZM227.331 176.06C225.951 174.62 225.261 172.88 225.261 170.84C225.261 168.8 225.951 167.09 227.331 165.71C228.771 164.27 230.511 163.55 232.551 163.55C234.591 163.55 236.301 164.27 237.681 165.71C239.121 167.09 239.841 168.8 239.841 170.84C239.841 172.88 239.121 174.62 237.681 176.06C236.301 177.44 234.591 178.13 232.551 178.13C230.511 178.13 228.771 177.44 227.331 176.06ZM213.741 215.66C219.861 213.8 227.211 210.62 235.791 206.12L237.681 215.21C231.861 218.99 224.841 222.68 216.621 226.28C213.861 227.48 211.161 228.53 208.521 229.43L198.171 219.89C201.111 211.85 206.391 201.83 214.011 189.83C216.291 186.23 218.511 183.08 220.671 180.38L229.581 186.95C225.201 192.95 220.941 200.18 216.801 208.64C215.601 211.16 214.581 213.5 213.741 215.66ZM247.494 230.15C243.174 227.27 239.394 224.54 236.154 221.96C233.214 219.38 230.004 216.29 226.524 212.69L235.794 206.12C239.994 210.5 243.084 213.44 245.064 214.94C247.044 216.38 248.814 217.61 250.374 218.63C252.054 218.45 254.784 217.88 258.564 216.92L243.624 202.79C242.244 201.35 241.164 200.06 240.384 198.92C242.664 194.84 246.594 190.61 252.174 186.23C257.394 182.15 262.374 179.42 267.114 178.04L281.514 189.65C280.494 193.73 278.094 199.13 274.314 205.85L264.684 198.65C265.944 196.79 267.054 194.78 268.014 192.62C268.974 190.46 269.544 189.02 269.724 188.3C266.364 189.56 262.914 191.84 259.374 195.14C258.114 196.34 256.974 197.57 255.954 198.83C257.094 200.57 258.834 202.4 261.174 204.32C265.134 207.74 268.464 210.68 271.164 213.14C277.824 210.86 283.464 208.52 288.084 206.12L289.974 215.21C285.174 218.63 278.424 221.81 269.724 224.75C261.684 227.45 254.274 229.25 247.494 230.15ZM310.049 187.22C315.629 186.62 319.739 185.96 322.379 185.24L324.449 194.96C319.169 196.28 312.449 197.06 304.289 197.3C300.629 204.5 297.899 211.04 296.099 216.92C300.959 216.08 306.149 214.88 311.669 213.32C317.189 211.7 322.739 209.3 328.319 206.12L330.209 215.21C324.749 218.99 318.509 222.23 311.489 224.93C304.589 227.57 298.469 229.07 293.129 229.43L281.969 219.08C285.509 207.32 291.539 194.93 300.059 181.91C302.699 177.83 305.519 173.9 308.519 170.12L316.529 177.5C314.189 180.74 312.029 183.98 310.049 187.22ZM352.373 221.33C347.633 225.05 342.173 227.75 335.993 229.43L324.833 219.08C324.833 214.34 325.553 209.69 326.993 205.13C328.433 200.57 330.563 196.46 333.383 192.8C336.203 189.14 339.683 186.11 343.823 183.71C348.023 181.25 352.853 179.78 358.313 179.3L364.253 188.39C364.973 187.25 366.503 185.27 368.843 182.45L377.663 190.01C371.723 197.75 366.803 206.03 362.903 214.85L362.633 215.03C366.113 214.13 370.193 212.6 374.873 210.44C379.553 208.22 382.523 206.78 383.783 206.12L385.763 215.21C382.223 217.79 376.343 221.12 368.123 225.2C364.883 226.82 361.943 228.11 359.303 229.07L352.373 221.33ZM337.433 216.47C343.853 214.73 349.703 210.47 354.983 203.69C356.543 200.27 357.713 196.01 358.493 190.91C352.313 191.51 347.243 194.24 343.283 199.1C339.383 203.9 337.433 209.69 337.433 216.47ZM400.902 195.68C406.902 190.94 413.112 186.86 419.532 183.44L430.422 191.99C428.442 200.51 424.962 208.19 419.982 215.03C425.982 212.99 432.792 210.02 440.412 206.12L442.302 215.21C439.842 216.83 436.092 218.9 431.052 221.42C422.412 225.68 416.442 228.35 413.142 229.43L401.982 221.51C405.582 217.19 408.582 212.93 410.982 208.73C413.442 204.47 415.032 200.75 415.752 197.57C408.072 201.17 400.752 205.37 393.792 210.17C391.032 216.77 388.692 223.19 386.772 229.43L376.062 222.5C378.102 215.6 381.282 207.83 385.602 199.19C389.502 191.45 393.582 184.91 397.842 179.57L406.932 186.14C404.832 188.96 402.822 192.14 400.902 195.68ZM115.641 328.84C125.121 328.18 133.761 325.93 141.561 322.09L145.071 332.35C135.231 338.41 123.861 341.92 110.961 342.88L99.5309 332.26C102.231 320.5 107.031 309.85 113.931 300.31C121.791 289.57 131.331 281.83 142.551 277.09L159.651 289.42C158.091 294.52 155.271 300.43 151.191 307.15C150.051 309.01 148.971 310.66 147.951 312.1L137.511 306.34C141.591 299.32 144.321 293.41 145.701 288.61C138.201 292.33 131.571 298.03 125.811 305.71C120.291 313.21 116.901 320.92 115.641 328.84ZM183.447 334.33C178.707 338.05 173.247 340.75 167.067 342.43L155.907 332.08C155.907 327.34 156.627 322.69 158.067 318.13C159.507 313.57 161.637 309.46 164.457 305.8C167.277 302.14 170.757 299.11 174.897 296.71C179.097 294.25 183.927 292.78 189.387 292.3L195.327 301.39C196.047 300.25 197.577 298.27 199.917 295.45L208.737 303.01C202.797 310.75 197.877 319.03 193.977 327.85L193.707 328.03C197.187 327.13 201.267 325.6 205.947 323.44C210.627 321.22 213.597 319.78 214.857 319.12L216.837 328.21C213.297 330.79 207.417 334.12 199.197 338.2C195.957 339.82 193.017 341.11 190.377 342.07L183.447 334.33ZM168.507 329.47C174.927 327.73 180.777 323.47 186.057 316.69C187.617 313.27 188.787 309.01 189.567 303.91C183.387 304.51 178.317 307.24 174.357 312.1C170.457 316.9 168.507 322.69 168.507 329.47ZM208.756 332.08C211.336 322.78 215.926 312.25 222.526 300.49C226.906 292.69 231.826 285.76 237.286 279.7C240.046 276.64 242.896 274.06 245.836 271.96L261.046 282.67C259.006 299.05 251.566 310.6 238.726 317.32C234.586 319.48 229.966 321.19 224.866 322.45C223.426 325.99 222.316 329.02 221.536 331.54C228.976 330.52 234.766 329.38 238.906 328.12C247.006 325.72 253.756 322.72 259.156 319.12L261.046 328.21C252.226 334.33 242.206 338.59 230.986 340.99C227.266 341.77 223.576 342.25 219.916 342.43L208.756 332.08ZM230.086 311.2C235.546 308.62 239.896 304.9 243.136 300.04C246.376 295.18 248.536 289.48 249.616 282.94C244.876 287.2 239.806 293.98 234.406 303.28C232.846 305.92 231.406 308.56 230.086 311.2ZM253.053 332.08C255.633 322.78 260.223 312.25 266.823 300.49C271.203 292.69 276.123 285.76 281.583 279.7C284.343 276.64 287.193 274.06 290.133 271.96L305.343 282.67C303.303 299.05 295.863 310.6 283.023 317.32C278.883 319.48 274.263 321.19 269.163 322.45C267.723 325.99 266.613 329.02 265.833 331.54C273.273 330.52 279.063 329.38 283.203 328.12C291.303 325.72 298.053 322.72 303.453 319.12L305.343 328.21C296.523 334.33 286.503 338.59 275.283 340.99C271.563 341.77 267.873 342.25 264.213 342.43L253.053 332.08ZM274.383 311.2C279.843 308.62 284.193 304.9 287.433 300.04C290.673 295.18 292.833 289.48 293.913 282.94C289.173 287.2 284.103 293.98 278.703 303.28C277.143 305.92 275.703 308.56 274.383 311.2ZM321.11 322.63C318.29 322.63 316.07 322.42 314.45 322C313.49 324.34 312.89 327.25 312.65 330.73C322.97 330.13 332.93 327.82 342.53 323.8C345.77 322.48 348.89 320.92 351.89 319.12L353.78 328.21C348.2 331.75 341.6 334.87 333.98 337.57C325.88 340.45 318.23 342.07 311.03 342.43L299.87 332.08C299.87 323.8 302.12 316.24 306.62 309.4C309.86 304.66 313.52 300.91 317.6 298.15C321.74 295.39 325.7 293.41 329.48 292.21L344.69 304.81C343.19 311.05 340.34 315.58 336.14 318.4C331.94 321.22 326.93 322.63 321.11 322.63ZM318.23 313.9C321.71 313.9 324.74 312.94 327.32 311.02C330.32 308.74 331.82 305.56 331.82 301.48C325.76 304.78 321.23 308.92 318.23 313.9ZM373.317 289.06C371.937 287.62 371.247 285.88 371.247 283.84C371.247 281.8 371.937 280.09 373.317 278.71C374.757 277.27 376.497 276.55 378.537 276.55C380.577 276.55 382.287 277.27 383.667 278.71C385.107 280.09 385.827 281.8 385.827 283.84C385.827 285.88 385.107 287.62 383.667 289.06C382.287 290.44 380.577 291.13 378.537 291.13C376.497 291.13 374.757 290.44 373.317 289.06ZM353.697 339.28C350.337 346.54 346.947 355.6 343.527 366.46L333.087 359.89C340.467 337.03 350.007 317.11 361.707 300.13C363.447 297.61 365.097 295.36 366.657 293.38L375.567 299.95C368.367 309.85 362.817 319.48 358.917 328.84C363.357 327.52 367.407 326.02 371.067 324.34C374.787 322.6 378.357 320.86 381.777 319.12L383.667 328.21C378.267 331.75 371.727 335.2 364.047 338.56C361.407 339.7 358.767 340.72 356.127 341.62L353.697 339.28ZM405.81 334.33C401.07 338.05 395.61 340.75 389.43 342.43L378.27 332.08C378.27 327.34 378.99 322.69 380.43 318.13C381.87 313.57 384 309.46 386.82 305.8C389.64 302.14 393.12 299.11 397.26 296.71C401.46 294.25 406.29 292.78 411.75 292.3L417.69 301.39C418.41 300.25 419.94 298.27 422.28 295.45L431.1 303.01C425.16 310.75 420.24 319.03 416.34 327.85L416.07 328.03C419.55 327.13 423.63 325.6 428.31 323.44C432.99 321.22 435.96 319.78 437.22 319.12L439.2 328.21C435.66 330.79 429.78 334.12 421.56 338.2C418.32 339.82 415.38 341.11 412.74 342.07L405.81 334.33ZM390.87 329.47C397.29 327.73 403.14 323.47 408.42 316.69C409.98 313.27 411.15 309.01 411.93 303.91C405.75 304.51 400.68 307.24 396.72 312.1C392.82 316.9 390.87 322.69 390.87 329.47Z" fill="#4C3D6D" fill-opacity="0.83"/>
</svg>
