<svg width="475" height="475" viewBox="0 0 475 475" fill="none" xmlns="http://www.w3.org/2000/svg">
<path d="M15.5357 91.55H87.5357V105.5H58.4357V200H43.8857V105.5H15.5357V91.55ZM110.855 137.9L111.905 152.45C113.605 148.95 115.955 145.95 118.955 143.45C121.955 140.85 125.055 138.9 128.255 137.6C131.555 136.2 134.405 135.45 136.805 135.35L136.205 149.3C131.505 149.1 127.355 150.05 123.755 152.15C120.155 154.15 117.355 156.9 115.355 160.4C113.355 163.9 112.355 167.65 112.355 171.65V200H98.4049V137.9H110.855ZM154.801 137.9H168.751V200H154.801V137.9ZM153.751 115.55C153.751 113.25 154.601 111.4 156.301 110C158.101 108.5 160.051 107.75 162.151 107.75C164.251 107.75 166.151 108.5 167.851 110C169.551 111.4 170.401 113.25 170.401 115.55C170.401 117.85 169.551 119.75 167.851 121.25C166.151 122.65 164.251 123.35 162.151 123.35C160.051 123.35 158.101 122.65 156.301 121.25C154.601 119.75 153.751 117.85 153.751 115.55ZM210.584 201.2C206.084 201.2 201.734 200.45 197.534 198.95C193.434 197.35 190.034 195 187.334 191.9L193.334 183.8C195.834 186.3 198.484 188.2 201.284 189.5C204.084 190.7 206.784 191.3 209.384 191.3C212.384 191.3 214.984 190.7 217.184 189.5C219.484 188.3 220.634 186.25 220.634 183.35C220.634 181.15 219.884 179.4 218.384 178.1C216.984 176.8 215.134 175.8 212.834 175.1C210.634 174.3 208.334 173.5 205.934 172.7C195.334 169.3 190.034 163.25 190.034 154.55C190.034 151.35 190.834 148.3 192.434 145.4C194.134 142.5 196.584 140.15 199.784 138.35C203.084 136.55 207.134 135.65 211.934 135.65C216.234 135.65 220.084 136.2 223.484 137.3C226.884 138.4 230.084 140.15 233.084 142.55L227.534 151.1C225.734 149.3 223.584 147.95 221.084 147.05C218.684 146.05 216.484 145.5 214.484 145.4C211.784 145.4 209.384 146.05 207.284 147.35C205.284 148.65 204.284 150.45 204.284 152.75C204.184 154.85 204.834 156.55 206.234 157.85C207.634 159.05 209.434 160.05 211.634 160.85C213.934 161.65 216.234 162.4 218.534 163.1C223.034 164.6 226.834 166.65 229.934 169.25C233.134 171.85 234.734 175.65 234.734 180.65C234.734 186.25 232.734 191.1 228.734 195.2C224.734 199.2 218.684 201.2 210.584 201.2ZM260.264 110.6H274.364V138.05H291.314V149.15H274.364V200H260.264V149.15H248.864V138.05H260.264V110.6ZM334.267 201.5C328.367 201.5 323.017 200.25 318.217 197.75C313.517 195.25 309.767 191.6 306.967 186.8C304.267 181.9 302.917 175.95 302.917 168.95C302.917 161.95 304.317 155.95 307.117 150.95C310.017 145.95 313.867 142.1 318.667 139.4C323.567 136.7 328.917 135.35 334.717 135.35C340.317 135.35 345.067 136.55 348.967 138.95C352.867 141.35 355.917 144.25 358.117 147.65L359.167 137.9H372.067V200H358.117V189.8C356.917 191.4 355.167 193.1 352.867 194.9C350.667 196.7 347.967 198.25 344.767 199.55C341.667 200.85 338.167 201.5 334.267 201.5ZM338.017 189.95C343.117 189.95 347.467 188.55 351.067 185.75C354.667 182.85 357.017 178.95 358.117 174.05V161.75C356.917 157.45 354.417 153.9 350.617 151.1C346.817 148.3 342.467 146.9 337.567 146.9C333.767 146.9 330.317 147.8 327.217 149.6C324.117 151.4 321.617 153.9 319.717 157.1C317.917 160.3 317.017 164 317.017 168.2C317.017 172.3 317.967 176 319.867 179.3C321.767 182.5 324.317 185.1 327.517 187.1C330.717 189 334.217 189.95 338.017 189.95ZM408.954 137.9L409.854 149.9C411.954 145.5 415.204 142 419.604 139.4C424.004 136.8 429.104 135.5 434.904 135.5C440.704 135.5 445.454 137.25 449.154 140.75C452.954 144.15 454.954 148.6 455.154 154.1V200H441.054V158.9C440.854 155.6 439.804 152.9 437.904 150.8C436.104 148.7 433.254 147.6 429.354 147.5C423.954 147.5 419.404 149.7 415.704 154.1C412.104 158.4 410.304 164 410.304 170.9V200H396.354V137.9H408.954ZM95.958 341.9C94.158 343.1 91.708 344.45 88.608 345.95C85.508 347.45 81.858 348.75 77.658 349.85C73.558 350.85 69.058 351.3 64.158 351.2C55.658 351.1 48.058 349.6 41.358 346.7C34.658 343.8 28.908 339.85 24.108 334.85C19.408 329.75 15.808 323.95 13.308 317.45C10.808 310.95 9.55801 304 9.55801 296.6C9.55801 288.5 10.858 281.05 13.458 274.25C16.158 267.35 19.908 261.4 24.708 256.4C29.508 251.3 35.158 247.35 41.658 244.55C48.258 241.75 55.458 240.35 63.258 240.35C69.758 240.35 75.658 241.25 80.958 243.05C86.258 244.75 90.808 246.75 94.608 249.05L88.758 262.7C85.758 260.7 82.108 258.8 77.808 257C73.508 255.2 68.808 254.3 63.708 254.3C58.408 254.3 53.408 255.4 48.708 257.6C44.008 259.7 39.858 262.65 36.258 266.45C32.658 270.15 29.808 274.55 27.708 279.65C25.708 284.65 24.708 290.05 24.708 295.85C24.708 303.65 26.308 310.7 29.508 317C32.808 323.2 37.408 328.1 43.308 331.7C49.308 335.3 56.308 337.1 64.308 337.1C69.908 337.1 74.808 336.3 79.008 334.7C83.308 333 86.858 331.05 89.658 328.85L95.958 341.9ZM142.958 351.5C137.058 351.5 131.708 350.25 126.908 347.75C122.208 345.25 118.458 341.6 115.658 336.8C112.958 331.9 111.608 325.95 111.608 318.95C111.608 311.95 113.008 305.95 115.808 300.95C118.708 295.95 122.558 292.1 127.358 289.4C132.258 286.7 137.608 285.35 143.408 285.35C149.008 285.35 153.758 286.55 157.658 288.95C161.558 291.35 164.608 294.25 166.808 297.65L167.858 287.9H180.758V350H166.808V339.8C165.608 341.4 163.858 343.1 161.558 344.9C159.358 346.7 156.658 348.25 153.458 349.55C150.358 350.85 146.858 351.5 142.958 351.5ZM146.708 339.95C151.808 339.95 156.158 338.55 159.758 335.75C163.358 332.85 165.708 328.95 166.808 324.05V311.75C165.608 307.45 163.108 303.9 159.308 301.1C155.508 298.3 151.158 296.9 146.258 296.9C142.458 296.9 139.008 297.8 135.908 299.6C132.808 301.4 130.308 303.9 128.408 307.1C126.608 310.3 125.708 314 125.708 318.2C125.708 322.3 126.658 326 128.558 329.3C130.458 332.5 133.008 335.1 136.208 337.1C139.408 339 142.908 339.95 146.708 339.95ZM205.046 233.75H218.996V350H205.046V233.75ZM243.278 233.75H257.228V350H243.278V233.75ZM310.31 351.5C303.31 351.5 297.21 350.1 292.01 347.3C286.91 344.4 282.96 340.45 280.16 335.45C277.46 330.45 276.11 324.8 276.11 318.5C276.11 312.4 277.61 306.85 280.61 301.85C283.71 296.75 287.86 292.75 293.06 289.85C298.36 286.85 304.21 285.35 310.61 285.35C318.81 285.35 325.61 287.75 331.01 292.55C336.41 297.35 340.11 303.95 342.11 312.35L292.91 329.6C294.61 332.7 297.01 335.15 300.11 336.95C303.21 338.65 306.71 339.5 310.61 339.5C313.41 339.5 316.06 339 318.56 338C321.06 337 323.46 335.7 325.76 334.1L332.21 344.45C329.01 346.55 325.46 348.25 321.56 349.55C317.76 350.85 314.01 351.5 310.31 351.5ZM289.91 317.75C289.81 318.95 289.86 320.1 290.06 321.2L326.21 307.85C324.81 304.85 322.76 302.2 320.06 299.9C317.46 297.6 313.96 296.45 309.56 296.45C303.86 296.45 299.16 298.45 295.46 302.45C291.76 306.45 289.91 311.55 289.91 317.75ZM360.34 379.85L351.94 371.15C354.74 368.75 356.94 365.8 358.54 362.3C360.14 358.8 360.94 354.65 360.94 349.85V287.9H375.04V350.3C375.04 357.4 373.84 363.35 371.44 368.15C369.14 373.05 365.44 376.95 360.34 379.85ZM359.89 265.55C359.89 263.25 360.74 261.4 362.44 260C364.24 258.5 366.19 257.75 368.29 257.75C370.39 257.75 372.29 258.5 373.99 260C375.69 261.4 376.54 263.25 376.54 265.55C376.54 267.85 375.69 269.75 373.99 271.25C372.29 272.65 370.39 273.35 368.29 273.35C366.19 273.35 364.24 272.65 362.44 271.25C360.74 269.75 359.89 267.85 359.89 265.55ZM424.355 351.5C418.455 351.5 413.105 350.25 408.305 347.75C403.605 345.25 399.855 341.6 397.055 336.8C394.355 331.9 393.005 325.95 393.005 318.95C393.005 311.95 394.405 305.95 397.205 300.95C400.105 295.95 403.955 292.1 408.755 289.4C413.655 286.7 419.005 285.35 424.805 285.35C430.405 285.35 435.155 286.55 439.055 288.95C442.955 291.35 446.005 294.25 448.205 297.65L449.255 287.9H462.155V350H448.205V339.8C447.005 341.4 445.255 343.1 442.955 344.9C440.755 346.7 438.055 348.25 434.855 349.55C431.755 350.85 428.255 351.5 424.355 351.5ZM428.105 339.95C433.205 339.95 437.555 338.55 441.155 335.75C444.755 332.85 447.105 328.95 448.205 324.05V311.75C447.005 307.45 444.505 303.9 440.705 301.1C436.905 298.3 432.555 296.9 427.655 296.9C423.855 296.9 420.405 297.8 417.305 299.6C414.205 301.4 411.705 303.9 409.805 307.1C408.005 310.3 407.105 314 407.105 318.2C407.105 322.3 408.055 326 409.955 329.3C411.855 332.5 414.405 335.1 417.605 337.1C420.805 339 424.305 339.95 428.105 339.95Z" fill="#4C3D6D"/>
</svg>
