<svg width="85" height="85" viewBox="0 0 85 85" fill="none" xmlns="http://www.w3.org/2000/svg">
<path d="M84.7706 0.384801C85.0096 0.924378 84.9566 0.675987 85 1.11161C84.6526 4.19964 84.6415 4.28719 84.6298 4.37974C82.863 18.245 75.8292 33.1801 64.8127 43.2031C64.6645 43.3443 63.7237 44.1444 62.1007 45.5153C61.4324 46.0796 60.8213 46.5949 60.2137 47.1069C59.8436 47.4186 60.0093 47.279 59.7168 47.5252C59.6725 47.8938 59.6252 48.2777 59.5726 48.6926C59.4224 49.8784 59.26 51.0767 59.0911 52.2133C59.0614 52.4131 59.0318 52.6096 59.0021 52.8024C58.7732 54.2915 58.5528 55.5242 58.3443 56.4318C56.9766 62.3887 51.6118 71.8613 46.3637 81.0471L46.3494 81.0713C45.4368 82.5719 44.5984 83.7261 43.9709 84.3393C43.4546 84.8443 43.0321 85.0987 42.4369 84.9645C41.937 84.8516 41.6354 84.4705 41.5374 84.0224C41.485 83.7839 41.4892 83.5331 41.5333 83.2361C42.2846 76.5424 42.8904 69.7064 42.3158 62.9706C42.2445 63.0747 42.3055 62.9839 42.1551 63.2571C42.146 63.2748 42.1363 63.2922 42.1262 63.3093C40.2725 66.4436 37.9025 67.6381 34.9533 65.2961L34.3052 64.7783C33.6623 67.2355 32.2075 69.3415 30.4646 71.1346C28.872 72.6692 24.164 76.1271 23.2124 76.3002C22.7075 76.3656 22.334 76.131 22.0893 75.6886C22.0456 75.6098 22.053 75.5117 22.035 75.4231C20.827 76.6419 19.4966 77.729 18.1505 78.7879C17.2811 79.4594 16.5065 80.0065 15.9339 80.3483C15.5852 80.5564 15.3019 80.696 15.0502 80.7686C14.787 80.8442 14.54 80.8636 14.2552 80.7611C13.7475 80.5787 13.491 80.099 13.528 79.6306C13.5291 79.3784 13.6304 79.1572 13.7286 78.9316C13.7539 78.9191 11.495 80.0254 10.7785 80.3677C9.55641 80.9513 8.46984 81.444 7.40612 81.8875C5.34316 82.7477 3.49614 83.3668 1.82448 83.717C1.07695 83.8739 0.429509 83.1799 0.631447 82.4388C1.06136 80.8613 1.72369 79.1249 2.59857 77.1994C3.08216 76.1347 3.61535 75.0449 4.23835 73.8306C5.90434 70.643 5.81435 70.8174 5.97023 70.5139C5.61666 70.6332 5.26292 70.7654 4.88862 70.7951C4.40645 70.8267 3.93367 70.5619 3.75919 70.0484C3.66158 69.7602 3.68408 69.5118 3.76291 69.2479C3.83855 68.9956 3.98114 68.7124 4.19282 68.3642C4.54019 67.7927 5.09446 67.0208 5.77326 66.1547C6.82209 64.8056 7.95082 63.5228 9.15165 62.3097C9.02428 62.2969 9.12189 62.3101 8.86929 62.2199C8.46913 62.0214 8.22184 61.5731 8.31467 61.0943C8.49978 60.1389 11.9995 55.4479 13.5417 53.8707C15.3081 52.0884 17.4935 50.7473 19.9132 50.0888L19.4055 49.4266C18.6631 48.3697 17.485 46.9792 18.0035 45.5712C18.3909 44.5188 20.5466 42.8957 21.4444 42.3511C21.5868 42.2272 21.7296 42.1029 21.8716 41.9784C15.1783 41.5487 8.38021 41.7047 1.7267 42.6166C1.43973 42.6556 1.1905 42.6565 0.954371 42.6005C0.510638 42.4955 0.136521 42.1865 0.0313008 41.682C-0.0941135 41.081 0.164863 40.6594 0.673429 40.1464C1.29129 39.5236 2.44925 38.6957 3.95245 37.7978L3.97671 37.7838C13.1738 32.6285 22.7401 27.4444 28.6761 26.1504C29.5805 25.953 30.8083 25.7481 32.2904 25.5386C32.4824 25.5113 32.678 25.4842 32.8767 25.4571C34.0081 25.3029 35.2004 25.1561 36.3807 25.0213L37.5422 24.8922C37.7909 24.6012 37.6501 24.7662 37.9647 24.3979C39.5322 22.5668 39.5322 22.5668 39.5719 22.5207C40.9559 20.9062 41.7638 19.9702 41.8899 19.8402C52.0148 8.87324 66.8647 1.91598 80.6617 0.329523C82.9863 0.0492145 83.4192 0.00427953 83.9745 0C84.3313 0.0354844 84.1258 -0.00784578 84.5752 0.190974L84.7706 0.384801ZM32.5535 63.3596C31.8718 62.745 32.2606 63.0954 31.3863 62.309C30.9833 63.1665 30.3619 63.8915 29.7256 64.5789L29.7029 64.6016C28.6881 65.5796 26.2229 67.3571 25.5131 67.4862L25.4886 67.4906L25.4642 67.4938C25.2247 67.5101 24.9643 67.5315 24.7411 67.4127C24.2998 67.8203 23.828 68.1919 23.3576 68.5648C22.8822 68.9321 22.4606 69.229 22.1336 69.4243C21.8823 69.5742 21.6732 69.6744 21.455 69.7374C21.1223 69.833 20.796 69.8367 20.4552 69.7142C20.0808 69.5459 20.2544 69.6356 19.8239 69.2868C19.5121 69.438 19.6429 69.375 19.4319 69.4765C18.7747 69.7903 18.2123 70.0441 17.6715 70.2696C16.5403 70.7413 15.5526 71.0669 14.6577 71.2545C13.5644 71.4838 12.617 70.4686 12.9125 69.3845C13.1413 68.545 13.4898 67.6204 13.9668 66.5707C14.2127 66.0293 14.4874 65.4655 14.8247 64.8081C14.9684 64.5335 14.8927 64.6779 15.0514 64.3744C14.7744 64.2293 14.6398 63.9301 14.5213 63.6574C14.4043 63.3127 14.4125 62.9845 14.5124 62.6501C14.5778 62.4319 14.6805 62.2223 14.8327 61.972C15.0307 61.646 15.3315 61.2263 15.7006 60.7554C16.3598 59.9333 15.9759 60.3957 16.8671 59.3815C16.7328 59.1404 16.7764 58.8547 16.8046 58.5974C16.9426 57.8851 18.7421 55.4282 19.7302 54.4177C20.4141 53.7594 21.1741 53.1325 22.0536 52.7575C21.4663 52.0836 21.7218 52.3784 21.2862 51.8741L20.6823 52.0068C18.7896 52.4351 16.577 53.6776 15.0017 55.3082C14.4153 55.9081 13.26 57.3317 12.1745 58.7868L11.9478 59.0938C12.7575 58.7089 12.2886 58.9378 13.3484 58.3952C14.4019 57.8433 15.3846 59.2406 14.5175 60.0574L11.3087 63.0804L11.2789 63.1077C10.2945 63.9647 8.70915 65.7289 7.37636 67.4286C6.92218 68.019 7.06938 67.8137 6.91527 68.0291C7.11933 67.9571 7.3296 67.9106 7.54482 67.8933C8.42679 67.8294 8.80977 68.5448 8.72545 69.2176C8.69658 69.4489 8.61722 69.693 8.48614 70.0061C6.52379 73.8625 6.28696 74.3175 6.05278 74.7738C5.44378 75.9612 4.92423 77.0229 4.4557 78.0543C3.60384 80.0025 4.04668 78.9389 3.14753 81.2541C4.33259 80.9077 5.48204 80.454 6.62458 79.9881C7.6527 79.5594 8.70968 79.0805 9.90271 78.5104C13.6517 76.6861 14.2371 76.4197 14.6887 76.2547C15.0135 76.1362 15.2707 76.0689 15.5177 76.0588C16.1596 76.0322 16.781 76.4407 16.7589 77.2353L16.7573 77.2704L16.9075 77.1566C18.6142 75.8387 20.3888 74.2676 21.2536 73.2887L21.2809 73.2589L24.3282 70.071C25.1241 69.2383 26.4684 70.157 25.9936 71.2088L25.3747 72.5801L25.5579 72.447C27.0184 71.3745 28.4486 70.2315 29.0567 69.6454C30.694 68.0866 31.959 65.8765 32.4091 63.9834L32.5535 63.3596ZM29.8634 60.926C25.6316 56.7608 24.7142 55.7417 23.7978 54.7225L23.3947 54.3108C22.5198 54.6158 21.7811 55.1659 21.1144 55.7982C20.7735 56.1469 20.1661 56.8968 19.6156 57.6484C19.4112 57.9286 19.2094 58.2112 19.0206 58.5022L20.3238 58.6338L18.8767 60.0958C18.2902 60.6883 17.7422 61.3119 17.2327 61.9674C16.9582 62.3242 17.0744 62.1662 16.8793 62.4381L18.537 61.8787L17.4336 64.0278C17.3852 64.1217 17.3721 64.1471 17.2779 64.3273C17.241 64.398 16.8003 65.2408 16.5527 65.7148C16.2322 66.3393 15.9708 66.8756 15.7387 67.3865C15.2854 68.4239 15.5237 67.8456 15.0408 69.1286C16.4363 68.6693 15.8106 68.9007 16.9257 68.4574C17.4341 68.2454 17.9673 68.0049 18.5965 67.7044C18.7244 67.6433 18.9628 67.5275 19.2792 67.3733L19.287 67.3696C19.4631 67.2838 19.6505 67.1921 19.8427 67.0983C19.9495 67.0461 19.9495 67.0461 20.0239 67.0097C20.0538 66.9949 20.0538 66.9949 20.0735 66.9855C20.0811 66.9815 20.0811 66.9815 20.0861 66.9792C20.0882 66.9782 20.0882 66.9782 20.0898 66.9774C20.0907 66.9769 20.0907 66.9769 20.0942 66.9753C20.0965 66.9741 20.0965 66.9741 20.1676 66.9436L20.5805 67.8886L21.3795 68.2415C21.3781 68.0307 21.2663 67.9555 21.1106 67.867C21.037 67.8405 20.9542 67.8414 20.9193 67.8514C20.9266 67.8494 20.945 67.8421 20.9742 67.828C21.0175 67.8073 21.0722 67.7774 21.14 67.7369C21.3895 67.588 21.7522 67.3325 22.1648 67.014C23.0051 66.3528 23.5507 65.887 24.0511 65.3822L25.3317 64.0902L25.5768 65.2961C25.8913 65.1002 26.1929 64.8842 26.495 64.6695C27.1305 64.2045 27.7642 63.732 28.3432 63.1961C28.8415 62.6849 29.2815 62.1171 29.6193 61.485C29.7906 61.1129 29.7093 61.2992 29.8634 60.926ZM35.8156 27.1586C34.2907 27.3401 35.1792 27.2308 33.1508 27.4944C32.9554 27.5209 32.7632 27.5477 32.5747 27.5744C31.1381 27.7775 29.9536 27.9753 29.1083 28.1595C21.0956 30.1621 12.1701 35.5825 4.98375 39.5722C4.27377 40.0045 4.65675 39.7655 3.83766 40.2944C8.57807 39.8315 13.3472 39.6398 18.1094 39.7226C20.1337 39.7313 22.1664 39.8008 24.1356 40.3067C25.6659 38.9098 27.0643 37.3761 28.4344 35.8225C29.687 34.3892 32.5212 31.3755 33.8191 29.7356C34.4928 28.8831 35.1604 28.0255 35.8156 27.1586ZM57.4546 49.1352C56.6034 49.7244 55.7709 50.3401 54.9371 50.9533C53.1905 52.2493 49.9866 55.0019 48.4809 56.2808C47.2097 57.3646 45.9659 58.4844 44.8109 59.694C44.5491 59.9681 44.2992 60.2534 44.0434 60.5332L44.0675 60.6042C44.9098 67.3992 44.5803 74.3753 43.8556 81.171C44.4046 80.3351 44.1582 80.7236 44.6008 80.0088C48.5748 72.7899 54.3343 64.0395 56.3545 55.9689C56.5494 55.1207 56.762 53.9313 56.9839 52.488C57.013 52.2987 57.0422 52.1057 57.0712 51.9092C57.3656 49.8392 57.2404 50.7641 57.4544 49.1352H57.4546ZM78.837 18.0257C75.327 15.8803 72.2492 12.9878 69.6559 9.79477C68.7824 8.71918 67.6562 7.20423 66.9853 5.97475C57.4496 9.51677 50.4434 13.9521 43.3695 21.2569C43.2742 21.3554 42.3958 22.3732 41.1179 23.8637C40.549 24.5276 40.0291 25.1351 39.5127 25.7389C38.4132 27.1094 38.1746 27.4303 37.9077 27.7859C37.1452 28.8009 36.3067 29.8918 35.4165 31.0166C34.0992 32.681 31.244 35.7196 29.9676 37.1803C27.7425 39.6166 25.4295 42.3762 22.5623 44.0723L22.5575 44.0756C21.4089 44.7424 19.952 46.0921 19.9204 46.2802C19.8847 46.4947 20.1585 47.0363 21.0242 48.1732L22.5042 50.1038L22.5605 50.2008L22.5676 50.1965C23.2567 51.3336 32.7669 61.0162 34.2956 62.1464L34.293 62.1498L34.3261 62.1699L36.2206 63.6842C37.3405 64.5736 37.8747 64.8568 38.0882 64.8236C38.5615 64.6078 40.0886 62.7241 40.3554 62.284C41.9237 59.2525 44.6173 56.8979 47.1639 54.7095C48.7069 53.3989 51.9452 50.6193 53.7254 49.2984C54.8334 48.4763 55.9062 47.7091 56.9033 47.017C58.4937 45.8751 58.6905 45.7093 58.903 45.5302C60.7416 43.9796 60.7416 43.9796 60.7881 43.9404C62.2862 42.6749 63.3092 41.8049 63.4259 41.694C70.7841 34.7528 75.187 27.5125 78.837 18.0257ZM68.0921 17.4082C70.9965 20.8058 70.7885 25.7198 67.7178 28.9264C64.4496 32.1712 59.1868 32.1344 55.9634 28.8444C52.74 25.5543 52.7765 20.257 56.0449 17.012C59.3131 13.7672 64.5759 13.8038 67.7993 17.094L68.0921 17.4082ZM66.5661 18.7745L66.3453 18.5375C63.9138 16.0557 59.9443 16.0281 57.4788 18.4758C55.0136 20.9233 54.9861 24.9191 57.4174 27.4007C59.849 29.8825 63.8185 29.9101 66.2839 27.4626C68.7238 24.9712 68.6903 21.4328 66.5661 18.7745ZM82.8449 2.14672C81.837 2.28473 81.3586 2.34072 80.8778 2.37425C76.8073 2.88476 72.8548 3.98014 68.9635 5.24884C71.2888 8.97684 74.2962 12.2723 77.8335 14.8692C78.4049 15.2888 79.0053 15.6665 79.5912 16.0652C81.0503 12.2134 82.0253 8.19547 82.604 4.1194C82.7243 3.1722 82.7891 2.6599 82.8449 2.14672Z" fill="#4C3D6D" fill-opacity="0.99"/>
<path d="M64.9072 19.8893L65.1888 20.1867C65.835 20.9789 66.109 21.9012 66.1595 22.9088C66.1595 25.2724 64.2562 27.1884 61.9082 27.1884C59.5602 27.1884 57.6569 25.2724 57.6569 22.9088C57.6569 20.5453 59.5602 18.6293 61.9082 18.6293C62.8947 18.6416 63.8477 18.9718 64.6124 19.6066L64.9072 19.8893ZM63.5047 21.2428C63.0541 20.8179 62.5094 20.6467 61.9082 20.5908C60.6365 20.5908 59.6054 21.6287 59.6054 22.9088C59.6054 24.1891 60.6365 25.2269 61.9082 25.2269C63.18 25.2269 64.211 24.1891 64.211 22.9088C64.2124 22.2995 64.0122 21.9219 63.6852 21.4344L63.5047 21.2428Z" fill="#4C3D6D"/>
</svg>
